<svg data-v-423bf9ae="" xmlns="http://www.w3.org/2000/svg" viewBox="0 0 401 90" class="iconLeft"><!----><!----><!----><g data-v-423bf9ae="" id="4e81d793-ce4d-4bef-ac5f-0624e5bbc7ec" fill="black" transform="matrix(6.122448921203613,0,0,6.122448921203613,164.01036071777344,10.714286804199219)"><path d="M3.99 0.70L5.47 0.70L5.47 10.50L4.49 10.50L4.49 3.53L3.40 9.79L2.07 9.79L0.98 3.53L0.98 10.50L0 10.50L0 0.70L1.50 0.70L2.74 7.95L3.99 0.70ZM9.73 10.50L8.48 2.67L7.77 7.20L8.48 7.20L8.48 8.18L7.62 8.18L7.24 10.50L6.24 10.50L6.62 8.18L6.24 8.18L6.24 7.20L6.78 7.20L7.81 0.70L9.16 0.70L10.72 10.50L9.73 10.50ZM15.18 4.61L15.18 5.59L15.18 9.39L15.18 9.39Q15.18 9.81 14.91 10.12L14.91 10.12L14.91 10.12Q14.64 10.43 14.24 10.50L14.24 10.50L12.21 10.50L12.21 10.50Q11.80 10.43 11.54 10.12L11.54 10.12L11.54 10.12Q11.27 9.81 11.27 9.39L11.27 9.39L11.27 1.81L11.27 1.81Q11.27 1.39 11.54 1.08L11.54 1.08L11.54 1.08Q11.80 0.77 12.21 0.70L12.21 0.70L14.24 0.70L14.24 0.70Q14.64 0.77 14.91 1.08L14.91 1.08L14.91 1.08Q15.18 1.39 15.18 1.81L15.18 1.81L15.18 2.83L14.20 2.83L14.20 1.81L14.20 1.81Q14.20 1.67 14.06 1.67L14.06 1.67L12.39 1.67L12.39 1.67Q12.25 1.67 12.25 1.81L12.25 1.81L12.25 9.39L12.25 9.39Q12.25 9.53 12.39 9.53L12.39 9.53L14.06 9.53L14.06 9.53Q14.20 9.53 14.20 9.39L14.20 9.39L14.20 5.59L13.03 5.59L13.03 4.61L15.18 4.61ZM17.07 0.70L17.07 10.50L16.09 10.50L16.09 0.70L17.07 0.70ZM20.90 8.34L21.88 8.34L21.88 9.39L21.88 9.39Q21.88 9.81 21.62 10.12L21.62 10.12L21.62 10.12Q21.36 10.43 20.96 10.50L20.96 10.50L18.91 10.50L18.91 10.50Q18.51 10.43 18.24 10.12L18.24 10.12L18.24 10.12Q17.98 9.81 17.98 9.39L17.98 9.39L17.98 1.81L17.98 1.81Q17.98 1.39 18.24 1.08L18.24 1.08L18.24 1.08Q18.51 0.77 18.91 0.70L18.91 0.70L20.96 0.70L20.96 0.70Q21.36 0.77 21.62 1.08L21.62 1.08L21.62 1.08Q21.88 1.39 21.88 1.81L21.88 1.81L21.88 2.86L20.90 2.86L20.90 1.81L20.90 1.81Q20.90 1.67 20.78 1.67L20.78 1.67L19.10 1.67L19.10 1.67Q18.96 1.67 18.96 1.81L18.96 1.81L18.96 9.39L18.96 9.39Q18.96 9.53 19.10 9.53L19.10 9.53L20.78 9.53L20.78 9.53Q20.90 9.53 20.90 9.39L20.90 9.39L20.90 8.34ZM29.41 0.70L29.41 0.70L28.20 10.50L26.85 10.50L26.11 6.22L25.37 10.50L24.02 10.50L22.79 0.70L23.79 0.70L24.70 8.54L25.73 3.12L26.60 3.12L27.52 8.54L28.42 0.70L29.41 0.70ZM33.73 1.68L31.18 1.68L31.18 4.62L33.22 4.62L33.22 5.60L31.18 5.60L31.18 9.52L33.73 9.52L33.73 10.50L30.20 10.50L30.20 4.62L31.18 4.62L30.20 1.68L30.20 0.70L33.73 0.70L33.73 1.68ZM38.54 4.76L38.54 4.76L38.54 4.76Q38.36 5.00 38.00 5.11L38.00 5.11L38.00 5.11Q38.37 5.24 38.54 5.49L38.54 5.49L38.54 5.49Q38.57 5.56 38.57 5.61L38.57 5.61L38.57 5.61Q38.57 5.67 38.57 5.74L38.57 5.74L38.57 9.38L38.57 9.38Q38.57 9.84 38.25 10.17L38.25 10.17L38.25 10.17Q37.93 10.50 37.46 10.50L37.46 10.50L34.64 10.50L34.64 4.62L35.62 4.62L34.64 1.68L34.64 0.70L37.46 0.70L37.46 0.70Q37.93 0.70 38.25 1.03L38.25 1.03L38.25 1.03Q38.57 1.36 38.57 1.82L38.57 1.82L38.57 4.48L38.57 4.48Q38.57 4.55 38.57 4.62L38.57 4.62L38.57 4.62Q38.57 4.69 38.54 4.76ZM37.59 9.38L37.59 5.74L37.59 5.74Q37.59 5.60 37.46 5.60L37.46 5.60L35.62 5.60L35.62 9.52L37.46 9.52L37.46 9.52Q37.59 9.52 37.59 9.38L37.59 9.38ZM37.59 4.48L37.59 1.82L37.59 1.82Q37.59 1.68 37.46 1.68L37.46 1.68L35.62 1.68L35.62 4.62L37.46 4.62L37.46 4.62Q37.59 4.62 37.59 4.48L37.59 4.48Z"></path></g><!----><g data-v-423bf9ae="" id="31eac6fb-e66b-4642-877d-ca98b9f5497e" transform="matrix(1.5001074075698853,0,0,1.5001074075698853,0.9948272705078125,-27.004087448120117)" stroke="none" fill="black"><path d="M28.416 76.572a4.01 4.01 0 0 1-2.832-1.172L1.172 50.844A4.02 4.02 0 0 1 0 48a4.03 4.03 0 0 1 1.176-2.848l24.412-24.548a3.978 3.978 0 0 1 5.656.004 4.048 4.048 0 0 1-.004 5.696L9.664 48l21.58 21.704a4.042 4.042 0 0 1 0 5.688 3.978 3.978 0 0 1-2.828 1.18zM67.588 76.572a3.963 3.963 0 0 1-2.828-1.18 4.038 4.038 0 0 1 0-5.697L86.344 48 64.76 26.304a4.037 4.037 0 0 1 0-5.696 3.978 3.978 0 0 1 5.656-.008l24.412 24.552A4.015 4.015 0 0 1 96 48c0 1.068-.42 2.088-1.172 2.844L70.416 75.393a3.96 3.96 0 0 1-2.828 1.179zM38.348 78a4.03 4.03 0 0 1-1.436-.264 4.045 4.045 0 0 1-2.296-5.213l19.868-51.947a3.992 3.992 0 0 1 5.168-2.304c2.06.796 3.088 3.124 2.296 5.204L42.072 75.424A3.983 3.983 0 0 1 38.348 78z"></path></g><!----></svg>